<svg width="32" height="32" viewBox="0 0 32 32" fill="none" xmlns="http://www.w3.org/2000/svg">
<g clip-path="url(#clip0_570_8)">
<path d="M27.8809 7.40128C25.9742 11.2158 24.1003 15.1516 21.145 18.2905C19.3308 20.3317 17.105 21.9297 14.9653 23.6011C15.094 23.6584 15.3523 23.7698 15.483 23.8258C20.0378 20.7566 25.7033 19.8671 31.0937 20.3036C28.3595 21.9053 25.4609 23.2324 22.4693 24.2784C21.061 24.7482 19.6312 25.1844 18.1538 25.3801C16.8536 25.5604 15.5331 25.4074 14.2302 25.5922C15.5162 26.2111 16.8816 26.701 18.0081 27.6033C19.5165 28.7975 20.914 30.1547 22.0544 31.7125C19.0374 31.1806 15.9852 29.9426 13.9283 27.5885C13.4717 27.1097 13.0958 26.5431 12.5538 26.158C11.641 26.0488 10.7184 26.239 9.80471 26.1416C8.01439 25.9874 6.42164 25.0369 5.00357 23.9971C3.55003 22.9018 2.11087 21.7722 0.888171 20.4178C3.17884 20.4813 5.35476 21.3439 7.42808 22.247C8.85436 22.8321 9.97865 23.9451 11.4152 24.5069C10.2554 23.1374 8.66431 22.2026 7.58633 20.7557C4.76587 17.368 3.07946 13.2166 1.907 9.01329C4.07363 11.2247 6.35255 13.3671 8.08773 15.9519C9.32403 17.7471 10.4422 19.6457 11.1386 21.7189C11.4563 22.6968 11.9081 23.6225 12.4854 24.4736C12.7794 23.719 12.9541 22.9263 13.0141 22.1202C13.3789 17.7667 13.0319 13.396 13.1559 9.03716C13.153 8.48631 13.067 7.94103 12.9587 7.40445C12.7501 8.12672 12.6995 8.88209 12.7548 9.62843C12.8971 11.6732 12.7372 13.7212 12.7685 15.767C12.8212 18.3183 12.8095 20.8998 12.2973 23.4101C11.6766 21.4031 11.3544 19.317 10.9912 17.2542C10.4641 13.8949 10.675 10.4324 11.5664 7.1522C12.1345 5.1226 12.4876 3.04052 13.0167 1.00233C13.7777 3.3469 14.2342 5.7743 14.6982 8.1914C15.3976 11.7199 15.3003 15.3777 14.6573 18.9068C14.4064 20.262 13.7367 21.5078 13.6191 22.8922C14.0124 22.3981 14.3575 21.8677 14.6019 21.2845C15.9596 18.0832 17.8515 15.0626 20.4033 12.6729C22.6222 10.5573 25.2699 8.97736 27.8809 7.40128ZM22.8874 12.9953C22.2351 13.4819 21.6317 14.0405 21.1419 14.694C20.4796 15.1255 19.9148 15.7097 19.6611 16.4748L19.8192 16.2984C19.5901 16.5648 19.3694 16.8398 19.1751 17.1342L19.2849 16.9608C18.6978 17.4141 18.1803 17.9541 17.7476 18.5572C16.5466 20.2123 15.2509 21.8022 13.9091 23.3462C13.5669 23.6933 13.3929 24.1506 13.3009 24.6226C13.7711 24.2356 14.2145 23.8155 14.5868 23.332C15.9819 21.5613 17.2979 19.7322 18.6609 17.9374L18.5511 18.1108C19.3822 17.6245 20.0279 16.9048 20.6085 16.1487C21.3902 15.1132 22.5227 14.2947 22.8874 12.9953ZM21.3122 22.642C19.4159 23.0997 17.569 23.7438 15.6724 24.2185C14.9393 24.3993 14.2331 24.6747 13.5695 25.0344C14.5092 25.1069 15.4226 24.8499 16.3042 24.5519C18.0929 23.9478 19.9235 23.479 21.7478 22.9918C23.1274 22.6212 24.5545 22.3599 25.8121 21.6541C24.2678 21.7363 22.8064 22.2847 21.3122 22.642ZM16.3029 27.5649C15.3618 26.935 14.4863 26.146 13.3608 25.8657C14.4338 27.0031 15.8397 27.7268 17.0899 28.6393C17.8943 29.2254 18.7269 29.7989 19.6814 30.1131C18.7077 29.0741 17.4586 28.3731 16.3029 27.5649ZM5.56735 15.1837C5.21006 14.6638 4.7971 14.1878 4.36145 13.7376C4.49913 14.2414 4.6938 14.734 4.99338 15.1679C6.57932 17.541 8.26509 19.8474 10.0038 22.1145C10.7044 23.0013 11.2215 24.0946 12.2321 24.6801C11.8758 24.0088 11.4687 23.3672 11.0133 22.7593C9.14635 20.2698 7.30792 17.7594 5.56735 15.1837ZM7.95092 23.7164C6.54679 23.1004 5.25422 22.1173 3.6878 21.9595C5.15119 23.0178 6.86173 23.6502 8.4814 24.4244C9.63696 24.8697 10.7408 25.658 12.0345 25.5462C10.738 24.7972 9.27455 24.4117 7.95092 23.7164Z" fill="#FBD19F"/>
<path d="M12.3426 26.2532C11.6996 29.5591 10.4315 37.2677 12.2651 44.6287C16.0637 57.4719 17.7743 60.6809 20.1597 63.3685C20.7756 63.984 21.2731 64.4334 22.0226 65.1649" stroke="#FBD19F" stroke-width="1.08195" stroke-linecap="round"/>
</g>
<defs>
<clipPath id="clip0_570_8">
<rect width="32" height="32" fill="white"/>
</clipPath>
</defs>
</svg>
