<svg width="32" height="32" viewBox="0 0 32 32" fill="none" xmlns="http://www.w3.org/2000/svg">
<g clip-path="url(#clip0_368_2530)">
<rect width="32" height="32" rx="9" fill="#F15D43"/>
<path d="M27.8809 7.39933C25.9742 11.2138 24.1003 15.1497 21.145 18.2885C19.3308 20.3298 17.105 21.9277 14.9653 23.5991C15.094 23.6564 15.3523 23.7678 15.483 23.8239C20.0378 20.7547 25.7033 19.8652 31.0937 20.3016C28.3595 21.9034 25.4609 23.2305 22.4693 24.2764C21.061 24.7463 19.6312 25.1824 18.1538 25.3782C16.8536 25.5584 15.5331 25.4054 14.2302 25.5902C15.5162 26.2091 16.8816 26.699 18.0081 27.6013C19.5165 28.7956 20.914 30.1527 22.0544 31.7105C19.0374 31.1786 15.9852 29.9406 13.9283 27.5865C13.4717 27.1077 13.0958 26.5412 12.5538 26.156C11.641 26.0469 10.7184 26.2371 9.80471 26.1397C8.01439 25.9854 6.42164 25.0349 5.00357 23.9951C3.55003 22.8998 2.11087 21.7702 0.888171 20.4158C3.17884 20.4793 5.35476 21.342 7.42808 22.2451C8.85436 22.8302 9.97865 23.9432 11.4152 24.505C10.2554 23.1354 8.66431 22.2006 7.58633 20.7537C4.76587 17.366 3.07946 13.2147 1.907 9.01134C4.07363 11.2227 6.35255 13.3652 8.08773 15.95C9.32403 17.7452 10.4422 19.6438 11.1386 21.7169C11.4563 22.6948 11.9081 23.6205 12.4854 24.4716C12.7794 23.7171 12.9541 22.9243 13.0141 22.1182C13.3789 17.7647 13.0319 13.3941 13.1559 9.03521C13.153 8.48436 13.067 7.93908 12.9587 7.40249C12.7501 8.12477 12.6995 8.88014 12.7548 9.62648C12.8971 11.6712 12.7372 13.7192 12.7685 15.765C12.8212 18.3164 12.8095 20.8978 12.2973 23.4082C11.6766 21.4011 11.3544 19.315 10.9912 17.2523C10.4641 13.8929 10.675 10.4304 11.5664 7.15024C12.1345 5.12064 12.4876 3.03857 13.0167 1.00038C13.7777 3.34495 14.2342 5.77235 14.6982 8.18945C15.3976 11.7179 15.3003 15.3758 14.6573 18.9049C14.4064 20.26 13.7367 21.5058 13.6191 22.8903C14.0124 22.3961 14.3575 21.8657 14.6019 21.2825C15.9596 18.0812 17.8515 15.0606 20.4033 12.6709C22.6222 10.5554 25.2699 8.97541 27.8809 7.39933ZM22.8874 12.9934C22.2351 13.4799 21.6317 14.0385 21.1419 14.692C20.4796 15.1236 19.9148 15.7077 19.6611 16.4728L19.8192 16.2965C19.5901 16.5628 19.3694 16.8378 19.1751 17.1323L19.2849 16.9589C18.6978 17.4121 18.1803 17.9522 17.7476 18.5552C16.5466 20.2103 15.2509 21.8003 13.9091 23.3443C13.5669 23.6913 13.3929 24.1487 13.3009 24.6206C13.7711 24.2337 14.2145 23.8136 14.5868 23.3301C15.9819 21.5593 17.2979 19.7303 18.6609 17.9354L18.5511 18.1088C19.3822 17.6225 20.0279 16.9029 20.6085 16.1467C21.3902 15.1113 22.5227 14.2928 22.8874 12.9934ZM21.3122 22.64C19.4159 23.0978 17.569 23.7418 15.6724 24.2165C14.9393 24.3974 14.2331 24.6727 13.5695 25.0324C14.5092 25.1049 15.4226 24.8479 16.3042 24.5499C18.0929 23.9458 19.9235 23.477 21.7478 22.9898C23.1274 22.6192 24.5545 22.3579 25.8121 21.6521C24.2678 21.7343 22.8064 22.2828 21.3122 22.64ZM16.3029 27.5629C15.3618 26.9331 14.4863 26.144 13.3608 25.8637C14.4338 27.0012 15.8397 27.7249 17.0899 28.6374C17.8943 29.2234 18.7269 29.7969 19.6814 30.1111C18.7077 29.0722 17.4586 28.3711 16.3029 27.5629ZM5.56735 15.1817C5.21006 14.6618 4.7971 14.1859 4.36145 13.7356C4.49913 14.2395 4.6938 14.7321 4.99338 15.166C6.57932 17.539 8.26509 19.8455 10.0038 22.1125C10.7044 22.9993 11.2215 24.0927 12.2321 24.6782C11.8758 24.0069 11.4687 23.3653 11.0133 22.7573C9.14635 20.2679 7.30792 17.7575 5.56735 15.1817ZM7.95092 23.7145C6.54679 23.0985 5.25422 22.1153 3.6878 21.9576C5.15119 23.0158 6.86173 23.6482 8.4814 24.4224C9.63696 24.8678 10.7408 25.6561 12.0345 25.5442C10.738 24.7952 9.27455 24.4098 7.95092 23.7145Z" fill="#FBD19F"/>
<path d="M12.3426 26.2532C11.6996 29.5591 10.4315 37.2677 12.2651 44.6287C16.0637 57.4719 17.7743 60.6809 20.1597 63.3685C20.7756 63.984 21.2731 64.4334 22.0226 65.1649" stroke="#FBD19F" stroke-width="1.08195" stroke-linecap="round"/>
</g>
<defs>
<clipPath id="clip0_368_2530">
<rect width="32" height="32" rx="9" fill="white"/>
</clipPath>
</defs>
</svg>
